<svg width="36" height="26" viewBox="0 0 36 26" fill="none" xmlns="http://www.w3.org/2000/svg">
<path fill-rule="evenodd" clip-rule="evenodd" d="M2.96748 14.321C2.6059 13.7776 2.33301 13.3266 2.15196 13.0142L2.14373 13L2.15196 12.9858C2.33301 12.6734 2.6059 12.2224 2.96748 11.679C3.69185 10.5903 4.76568 9.1408 6.16244 7.69474C8.97211 4.78591 12.9788 2 18 2C23.0212 2 27.0279 4.78591 29.8376 7.69474C31.2343 9.1408 32.3081 10.5903 33.0325 11.679C33.3941 12.2224 33.667 12.6734 33.848 12.9858L33.8563 13L33.848 13.0142C33.667 13.3266 33.3941 13.7776 33.0325 14.321C32.3081 15.4097 31.2343 16.8592 29.8376 18.3053C27.0279 21.2141 23.0212 24 18 24C12.9788 24 8.97211 21.2141 6.16244 18.3053C4.76568 16.8592 3.69185 15.4097 2.96748 14.321ZM35.8886 12.5413C35.8888 12.5417 35.889 12.542 35 13C35.889 13.458 35.8888 13.4583 35.8886 13.4587L35.8881 13.4597L35.8866 13.4626L35.8819 13.4717L35.8656 13.5025C35.8518 13.5287 35.8319 13.5659 35.8059 13.6134C35.7541 13.7086 35.6781 13.8451 35.5784 14.017C35.3792 14.3609 35.0846 14.8474 34.6976 15.429C33.9248 16.5903 32.777 18.1408 31.2761 19.6947C28.2903 22.7859 23.797 26 18 26C12.203 26 7.70971 22.7859 4.72392 19.6947C3.22296 18.1408 2.07519 16.5903 1.30241 15.429C0.915407 14.8474 0.62083 14.3609 0.421552 14.017C0.321876 13.8451 0.245929 13.7086 0.194077 13.6134C0.168148 13.5659 0.148233 13.5287 0.134378 13.5025L0.118143 13.4717L0.113443 13.4626L0.111949 13.4597L0.111416 13.4587C0.111209 13.4583 0.111025 13.458 1 13C0.111025 12.542 0.111209 12.5417 0.111416 12.5413L0.111949 12.5403L0.113443 12.5374L0.118143 12.5283L0.134378 12.4975C0.148233 12.4713 0.168148 12.4341 0.194077 12.3866C0.245929 12.2914 0.321876 12.1549 0.421552 11.983C0.62083 11.6391 0.915407 11.1526 1.30241 10.571C2.07519 9.40965 3.22296 7.8592 4.72392 6.30526C7.70971 3.21409 12.203 0 18 0C23.797 0 28.2903 3.21409 31.2761 6.30526C32.777 7.8592 33.9248 9.40965 34.6976 10.571C35.0846 11.1526 35.3792 11.6391 35.5784 11.983C35.6781 12.1549 35.7541 12.2914 35.8059 12.3866C35.8319 12.4341 35.8518 12.4713 35.8656 12.4975L35.8819 12.5283L35.8866 12.5374L35.8881 12.5403L35.8886 12.5413ZM35 13L35.889 12.542C36.037 12.8294 36.037 13.1706 35.889 13.458L35 13ZM0.111025 12.542L1 13L0.111025 13.458C-0.0370085 13.1706 -0.0370085 12.8294 0.111025 12.542ZM14.3635 12.9999C14.3635 11.0949 15.9632 9.49994 17.9999 9.49994C20.0365 9.49994 21.6363 11.0949 21.6363 12.9999C21.6363 14.905 20.0365 16.4999 17.9999 16.4999C15.9632 16.4999 14.3635 14.905 14.3635 12.9999ZM17.9999 7.49994C14.9154 7.49994 12.3635 9.93444 12.3635 12.9999C12.3635 16.0654 14.9154 18.4999 17.9999 18.4999C21.0844 18.4999 23.6363 16.0654 23.6363 12.9999C23.6363 9.93444 21.0844 7.49994 17.9999 7.49994Z" fill="#D536D8"/>
</svg>
