<svg width="36" height="36" viewBox="0 0 36 36" fill="none" xmlns="http://www.w3.org/2000/svg">
<path fill-rule="evenodd" clip-rule="evenodd" d="M2 18C2 9.16344 9.16344 2 18 2C26.8366 2 34 9.16344 34 18C34 26.8366 26.8366 34 18 34C9.16344 34 2 26.8366 2 18ZM18 0C8.05887 0 0 8.05887 0 18C0 27.9411 8.05887 36 18 36C27.9411 36 36 27.9411 36 18C36 8.05887 27.9411 0 18 0ZM19 7.79999C19 7.2477 18.5523 6.79999 18 6.79999C17.4477 6.79999 17 7.2477 17 7.79999V18C17 18.3788 17.214 18.725 17.5528 18.8944L24.3528 22.2944C24.8468 22.5414 25.4474 22.3412 25.6944 21.8472C25.9414 21.3532 25.7412 20.7526 25.2472 20.5056L19 17.382V7.79999Z" fill="#D536D8"/>
</svg>
