<svg width="36" height="36" viewBox="0 0 36 36" fill="none" xmlns="http://www.w3.org/2000/svg">
<path fill-rule="evenodd" clip-rule="evenodd" d="M0 18C0 8.05887 8.05887 0 18 0C27.9411 0 36 8.05887 36 18C36 27.94 27.9429 35.9983 18.0032 36C18.0022 36 18.0011 36 18 36C17.9989 36 17.9978 36 17.9968 36C8.05713 35.9983 0 27.94 0 18ZM19 33.9693V28.2C19 27.6477 18.5523 27.2 18 27.2C17.4477 27.2 17 27.6477 17 28.2V33.9693C8.95999 33.4735 2.52654 27.04 2.03074 19H7.8C8.35229 19 8.8 18.5523 8.8 18C8.8 17.4477 8.35229 17 7.8 17H2.03074C2.52654 8.95998 8.95999 2.52654 17 2.03074V7.8C17 8.35229 17.4477 8.8 18 8.8C18.5523 8.8 19 8.35229 19 7.8V2.03074C27.04 2.52654 33.4735 8.95998 33.9693 17H28.2C27.6477 17 27.2 17.4477 27.2 18C27.2 18.5523 27.6477 19 28.2 19H33.9693C33.4735 27.04 27.04 33.4735 19 33.9693Z" fill="#D536D8"/>
</svg>
