<svg width="34" height="40" viewBox="0 0 34 40" fill="none" xmlns="http://www.w3.org/2000/svg">
<path fill-rule="evenodd" clip-rule="evenodd" d="M1.45623 1.38079C2.38693 0.495468 3.64688 0 4.95833 0H21.0137H21.0139C21.0222 0 21.0304 0.000104308 21.0387 0.000312171C21.2133 0.00467829 21.3761 0.0546584 21.5147 0.13833C21.5732 0.173538 21.6279 0.215072 21.6777 0.262474L33.7194 11.717C33.7938 11.7878 33.8548 11.8692 33.9006 11.9577C33.9302 12.0147 33.9538 12.0753 33.9706 12.1384C33.99 12.2114 34 12.287 34 12.3636V35.2727C34 36.53 33.4749 37.7335 32.5438 38.6192C31.6131 39.5045 30.3531 40 29.0417 40H4.95833C3.64688 40 2.38693 39.5045 1.45623 38.6192C0.525143 37.7335 0 36.53 0 35.2727V4.72727C0 3.47003 0.525143 2.26648 1.45623 1.38079ZM4.95833 1.81818H20.0692V12.3636C20.0692 12.8657 20.4921 13.2727 21.0137 13.2727H32.1111V35.2727C32.1111 36.0408 31.7905 36.7796 31.2161 37.326C30.6413 37.8727 29.8593 38.1818 29.0417 38.1818H4.95833C4.14068 38.1818 3.35874 37.8727 2.78394 37.326C2.20953 36.7796 1.88889 36.0408 1.88889 35.2727V4.72727C1.88889 3.95923 2.20953 3.22044 2.78394 2.67403C3.35874 2.12726 4.14068 1.81818 4.95833 1.81818ZM21.9581 3.08538L30.7562 11.4545H21.9581V3.08538ZM8.97199 20.9999C8.45039 20.9999 8.02755 21.4069 8.02755 21.909C8.02755 22.411 8.45039 22.818 8.97199 22.818H25.0275C25.5491 22.818 25.972 22.411 25.972 21.909C25.972 21.4069 25.5491 20.9999 25.0275 20.9999H8.97199ZM8.02755 29.5455C8.02755 29.0434 8.45039 28.6364 8.97199 28.6364H25.0275C25.5491 28.6364 25.972 29.0434 25.972 29.5455C25.972 30.0475 25.5491 30.4545 25.0275 30.4545H8.97199C8.45039 30.4545 8.02755 30.0475 8.02755 29.5455ZM8.97199 13.3636C8.45039 13.3636 8.02755 13.7706 8.02755 14.2727C8.02755 14.7748 8.45039 15.1818 8.97199 15.1818H10.9789H12.9859C13.5075 15.1818 13.9303 14.7748 13.9303 14.2727C13.9303 13.7706 13.5075 13.3636 12.9859 13.3636H10.9789H8.97199Z" fill="#D536D8"/>
</svg>
