<svg width="36" height="36" viewBox="0 0 36 36" fill="none" xmlns="http://www.w3.org/2000/svg">
<path d="M34.9999 17.0556C35.0064 19.5487 34.424 22.008 33.2999 24.2334C31.9672 26.9 29.9184 29.1429 27.3829 30.7109C24.8475 32.2788 21.9255 33.11 18.9444 33.1111C16.4513 33.1176 13.992 32.5351 11.7666 31.4111L1 35L4.58888 24.2334C3.46487 22.008 2.88239 19.5487 2.88889 17.0556C2.89004 14.0745 3.72115 11.1525 5.28913 8.61708C6.85711 6.08163 9.10002 4.03279 11.7666 2.70005C13.992 1.57603 16.4513 0.993554 18.9444 1.00005H19.8889C23.826 1.21726 27.5446 2.87904 30.3328 5.66722C33.121 8.4554 34.7827 12.174 34.9999 16.1111V17.0556Z" stroke="#D536D8" stroke-width="2" stroke-linecap="round" stroke-linejoin="round"/>
</svg>
